<?xml version="1.0" encoding="UTF-8"?>
<svg
  id="Layer_3"
  data-name="Layer 3"
  xmlns="http://www.w3.org/2000/svg"
  viewBox="216 206 630 176"
  preserveAspectRatio="xMidYMid meet"
>
  <defs>
    <style>
      .cls-2 {
        fill: #1a837f;
      }

      .cls-3 {
        fill: #253647;
      }
    </style>
  </defs>
  <path
    class="cls-2"
    d="M279.46,359.62c-2.23,2.88-5.43,4.82-8.27,4.81l-27.43-.09c-2.49,0-5.66-2.65-6.51-4.49-1.15-2.48-.88-7.09,1.11-9.54l75.67-93.12,15.11-18.29c1.91-2.32,7.49-1.34,9.85-.19l13.21,6.44,36.78-47.26c1.37-1.76,4.75-3.39,6.82-3.38l25.42.06c3.07,0,6.24,3.23,7.11,5.73,1.23,3.56.07,6.51-2.38,9.64l-40.38,51.52-17.5,22.65c-2.04,2.64-6.54,2.37-8.99,1.22l-16.1-7.58-9.35,12-54.14,69.87Z"
  />
  <g>
    <path
      class="cls-3"
      d="M420.69,364.39l-33.82.03c-3.78,0-6.92-2.12-9.34-5.03l-45.2-54.55,13.11-16.84,9.85,4.78c7,3.4,14.36,2.09,19.96-3.81l51.34,60.44c2.37,2.79,3.21,6.28,1.96,9.54-.95,2.48-4.19,5.44-7.87,5.44Z"
    />
    <path
      class="cls-3"
      d="M317.53,239.73l-27.14,33.59-36.78-45.93-15.51-18.61c-1.64-2.37-2.34-5.79-1.48-8.36s4.14-5.78,7.21-5.79l33.32-.12c2.78.5,5.33,1.94,7.34,4.01l33.04,41.21Z"
    />
  </g>
  <polygon
    class="cls-3"
    points="823.17 310.88 807.59 311.38 794.41 290.02 781.81 311.17 766 310.97 785.59 278.77 766.62 248.6 782.35 248.4 794.42 267.44 806.56 248.35 822.29 248.55 803.31 278.89 823.17 310.88"
  />
  <path
    class="cls-3"
    d="M571.97,308.56c-12.35,7.12-34.94,3.91-39.8-12.14l11.33-6.4c3.23,7.54,9.67,10.34,17.65,8.97,2.88-.49,5.86-2.7,6.08-5.47.97-12.58-38.68-4.88-31.73-33.1,1.44-5.86,6.7-10.86,13.38-12.7,12.17-3.34,25.34,1.11,30.27,12.92l-10.84,6.37c-3.65-6.75-10.19-9.79-17.1-6.63-1.37.63-3.08,3.61-3.09,5.09,0,1.67,2.21,4.72,4,5.32l15.72,5.29c6.8,2.29,11.75,7.54,12.53,13.62.97,7.5-1.34,14.81-8.39,18.87Z"
  />
  <polygon
    class="cls-3"
    points="746.21 286.89 764.42 310.96 749.96 311.14 733.81 290.57 733.4 311.23 720.97 311 720.97 247.09 733.45 246.96 733.68 284.12 749.06 264.91 763.85 265.17 746.21 286.89"
  />
  <path
    class="cls-3"
    d="M665.65,288.1c0,13.37-10.84,24.21-24.21,24.21s-24.21-10.84-24.21-24.21,10.84-24.21,24.21-24.21,24.21,10.84,24.21,24.21ZM652.73,288.48c.3-7.58-5.03-12.36-11.27-12.55s-11.44,5.15-11.48,12.04,4.74,12.18,11.47,12.17c5.86-.01,10.99-4.33,11.28-11.66Z"
  />
  <path
    class="cls-3"
    d="M682.93,288.56c.26,5.7,3.81,9.94,7.88,11.03,5.54,1.49,10.72-.03,13.6-5.66l11.03,5.99c-5.53,10.58-16.81,14.09-27.92,11.42-9.88-2.38-17.2-11.85-17.39-22.79-.19-10.51,6.21-20.51,17-23.49s22.58.63,28.06,10.7l-10.63,6.2c-3-4.93-7.76-6.8-12.97-5.62s-8.97,5.56-8.67,12.21Z"
  />
  <path
    class="cls-3"
    d="M475.12,282.35l-28.47.09-.09,21.91,31.09.09c.49,1.83.6,4.41.29,6.75l-38.92-.03-.04-62.55h38.28s.06,6.63.06,6.63l-30.73.06.02,20.31,28.45.07.06,6.66Z"
  />
  <path
    class="cls-3"
    d="M614.06,311.22c-4.72.22-8.6.35-13.03-.16-5.88-.68-10.35-6.05-10.43-11.97l-.33-22.58-7.57-.45v-10.96s7.61-.49,7.61-.49l.42-8.78,12.31-3.43.18,12.43,10.4.14-.19,11.16-10.37.47.38,21.85c3.12,1.4,5.94,1.61,9.95,1.58l.66,11.2Z"
  />
  <path
    class="cls-3"
    d="M510.42,309.89c-.94,1.64-5.07,1.54-7.36.87l-.05-55.45-19.31-.1.17-6.64h45.97s.11,6.64.11,6.64l-19.41.12-.13,54.55Z"
  />
</svg>
